{"title":"Playing for Time (1980) DVDRip MKv","uid":9372335,"size":1059894654,"categoryP":"video","categoryS":"movies","magnet":"?xt=urn:btih:22d4cbdb41f2183aaf408ad371cca2e386198cc6&amp;dn=Playing+for+Time+%281980%29+DVDRip+MKv&amp;tr=udp%3A%2F%2Ftracker.openbittorrent.com%3A80&amp;tr=udp%3A%2F%2Fopen.demonii.com%3A1337&amp;tr=udp%3A%2F%2Ftracker.coppersurfer.tk%3A6969&amp;tr=udp%3A%2F%2Fexodus.desync.com%3A6969","seeders":0,"leechers":1,"uploader":"7","files":-1,"time":1387554649,"description":"Genre\t, Drama, Music\nActors\tVanessa Redgrave, Jane Alexander, Maud Adams\nPlot\tFemale prisoners in a Nazi concentration camp (Auschwitz) are spared from death in return for performing music for their captors.\nIMDB link\t\n &lt;a href=&quot;\nhttp://www.imdb.com/title/tt0081344/&quot; rel=&quot;nofollow&quot; target=&quot;_NEW&quot;&gt;\nhttp://www.imdb.com/title/tt0081344/&lt;/a&gt;\n\n\nGeneral\nComplete name                            : Playing for Time (1980).mkv\nFormat                                   : Matroska\nFormat version                           : Version 2\nFile size                                : 1 011 MiB\nDuration                                 : 2h 28mn\nOverall bit rate mode                    : Variable\nOverall bit rate                         : 950 Kbps\nEncoded date                             : UTC 2013-03-17 15:20:31\nWriting application                      : mkvmerge v2.9.8 ('C'est le bon') built on Aug 13 2009 12:49:06\nWriting library                          : libebml v0.7.7 + libmatroska v0.8.1\n\nVideo\nID                                       : 2\nFormat                                   : AVC\nFormat/Info                              : Advanced Video Codec\nFormat profile                           : &lt;a class=&quot;__cf_email__&quot; href=&quot;/cdn-cgi/l/email-protection&quot; data-cfemail=&quot;3c74555b547c7008120c&quot;&gt;[email&amp;#160;protected]&lt;/a&gt;&lt;script data-cfhash='f9e31' type=&quot;text/javascript&quot;&gt;\n/* &lt;![CDATA[ */!function(){try{var t=&quot;currentScript&quot;in document?document.currentScript:function(){for(var t=document.getElementsByTagName(&quot;script&quot;),e=t.length;e--;)if(t[e].getAttribute(&quot;data-cfhash&quot;))return t[e]}();if(t&amp;&amp;t.previousSibling){var e,r,n,i,c=t.previousSibling,a=c.getAttribute(&quot;data-cfemail&quot;);if(a){for(e=&quot;&quot;,r=parseInt(a.substr(0,2),16),n=2;a.length-n;n+=2)i=parseInt(a.substr(n,2),16)^r,e+=String.fromCharCode(i);e=document.createTextNode(e),c.parentNode.replaceChild(e,c)}t.parentNode.removeChild(t);}}catch(u){}}()/* ]]&gt; */&lt;/script&gt;\nFormat settings, CABAC                   : Yes\nFormat settings, ReFrames                : 5 frames\nCodec ID                                 : V_MPEG4/ISO/AVC\nDuration                                 : 2h 28mn\nBit rate                                 : 829 Kbps\nWidth                                    : 512 pixels\nHeight                                   : 384 pixels\nDisplay aspect ratio                     : 4:3\nFrame rate mode                          : Constant\nFrame rate                               : 23.976 fps\nColor space                              : YUV\nChroma subsampling                       : 4:2:0\nBit depth                                : 8 bits\nScan type                                : Progressive\nBits/(Pixel*Frame)                       : 0.176\nStream size                              : 864 MiB (85%)\nWriting library                          : x264 core 129 r2245 bc13772\nDefault                                  : No\nForced                                   : No\n\nAudio\nID                                       : 1\nFormat                                   : MPEG Audio\nFormat version                           : Version 1\nFormat profile                           : Layer 3\nCodec ID                                 : A_MPEG/L3\nCodec ID/Hint                            : MP3\nDuration                                 : 2h 28mn\nBit rate mode                            : Variable\nBit rate                                 : 119 Kbps\nMinimum bit rate                         : 40.0 Kbps\nChannel(s)                               : 2 channels\nSampling rate                            : 48.0 KHz\nCompression mode                         : Lossy\nStream size                              : 127 MiB (13%)\nWriting library                          : LAME3.98r\nEncoding settings                        : -m s -V 6 -q 0 -lowpass 15.5 --vbr-new -b 40\nLanguage                                 : English\nDefault                                  : Yes\nForced                                   : No\n\n &lt;a href=&quot;\nhttp://lookpic.com/O/i2/100/GwtGlosb.jpeg&quot; rel=&quot;nofollow&quot; target=&quot;_NEW&quot;&gt;\nhttp://lookpic.com/O/i2/100/GwtGlosb.jpeg&lt;/a&gt;","torrent":{"xt":"urn:btih:22d4cbdb41f2183aaf408ad371cca2e386198cc6","amp;dn":"Playing+for+Time+%281980%29+DVDRip+MKv","amp;tr":["udp%3A%2F%2Ftracker.openbittorrent.com%3A80","udp%3A%2F%2Fopen.demonii.com%3A1337","udp%3A%2F%2Ftracker.coppersurfer.tk%3A6969","udp%3A%2F%2Fexodus.desync.com%3A6969"],"infoHash":"22d4cbdb41f2183aaf408ad371cca2e386198cc6","infoHashBuffer":{"type":"Buffer","data":[34,212,203,219,65,242,24,58,175,64,138,211,113,204,162,227,134,25,140,198]},"announce":[],"urlList":[]}}